<mxfile host="app.diagrams.net" agent="Mozilla/5.0 (Windows NT 10.0; Win64; x64) AppleWebKit/537.36 (KHTML, like Gecko) Chrome/139.0.0.0 Safari/537.36" version="28.1.0">
  <diagram name="Página-1" id="58KHKjolmZH9Jl-Zs60m">
    <mxGraphModel dx="1426" dy="777" grid="1" gridSize="10" guides="1" tooltips="1" connect="1" arrows="1" fold="1" page="1" pageScale="1" pageWidth="827" pageHeight="1169" math="0" shadow="0">
      <root>
        <mxCell id="0" />
        <mxCell id="1" parent="0" />
        <mxCell id="pejVzQ1x4Z5_xWOsWl8--1" style="rounded=0;orthogonalLoop=1;jettySize=auto;html=1;entryX=0;entryY=1;entryDx=0;entryDy=0;" parent="1" source="pejVzQ1x4Z5_xWOsWl8--2" target="pejVzQ1x4Z5_xWOsWl8--5" edge="1">
          <mxGeometry relative="1" as="geometry" />
        </mxCell>
        <mxCell id="pejVzQ1x4Z5_xWOsWl8--2" value="Técnico" style="shape=umlActor;verticalLabelPosition=bottom;verticalAlign=top;html=1;outlineConnect=0;" parent="1" vertex="1">
          <mxGeometry x="260" y="490" width="30" height="60" as="geometry" />
        </mxCell>
        <mxCell id="pejVzQ1x4Z5_xWOsWl8--3" style="rounded=0;orthogonalLoop=1;jettySize=auto;html=1;entryX=0;entryY=0;entryDx=0;entryDy=0;" parent="1" source="pejVzQ1x4Z5_xWOsWl8--4" target="pejVzQ1x4Z5_xWOsWl8--5" edge="1">
          <mxGeometry relative="1" as="geometry" />
        </mxCell>
        <mxCell id="pejVzQ1x4Z5_xWOsWl8--4" value="Administrador" style="shape=umlActor;verticalLabelPosition=bottom;verticalAlign=top;html=1;outlineConnect=0;" parent="1" vertex="1">
          <mxGeometry x="260" y="260" width="30" height="60" as="geometry" />
        </mxCell>
        <mxCell id="pejVzQ1x4Z5_xWOsWl8--5" value="ViewCases" style="ellipse;whiteSpace=wrap;html=1;" parent="1" vertex="1">
          <mxGeometry x="524" y="340" width="120" height="80" as="geometry" />
        </mxCell>
        <mxCell id="pejVzQ1x4Z5_xWOsWl8--6" value="" style="endArrow=classic;html=1;rounded=0;" parent="1" edge="1">
          <mxGeometry width="50" height="50" relative="1" as="geometry">
            <mxPoint x="274.5" y="480" as="sourcePoint" />
            <mxPoint x="274.5" y="350" as="targetPoint" />
          </mxGeometry>
        </mxCell>
        <mxCell id="toCsDj9fuco49Wam5Kvl-1" value="&lt;font style=&quot;font-size: 18px;&quot;&gt;Caracteristica&lt;/font&gt;&lt;div&gt;&lt;font style=&quot;font-size: 18px;&quot;&gt;CASO&lt;/font&gt;&lt;/div&gt;" style="text;html=1;align=center;verticalAlign=middle;whiteSpace=wrap;rounded=0;" vertex="1" parent="1">
          <mxGeometry x="300" y="80" width="206" height="30" as="geometry" />
        </mxCell>
      </root>
    </mxGraphModel>
  </diagram>
</mxfile>
